<svg width="21" height="22" viewBox="0 0 21 22" fill="none" xmlns="http://www.w3.org/2000/svg">
<path d="M7.07333 8.26147C6.28851 9.50594 5.72266 11.0411 5.72266 12.8797C5.72266 13.5338 5.85346 14.2066 6.1044 14.8508" stroke="#FF4B03" stroke-width="0.6" stroke-miterlimit="10" stroke-linecap="round" stroke-linejoin="round"/>
<path d="M10.6299 4.75C9.87504 5.23877 8.84543 6.01948 7.92407 7.10527" stroke="#FF4B03" stroke-width="0.6" stroke-miterlimit="10" stroke-linecap="round" stroke-linejoin="round"/>
<path d="M16.4419 16.4024C17.2715 15.3628 17.7208 14.0895 17.7208 12.8801C17.7208 8.53741 14.5634 5.8881 12.8298 4.76074" stroke="#FF4B03" stroke-width="0.6" stroke-miterlimit="10" stroke-linecap="round" stroke-linejoin="round"/>
<path d="M12.4575 18.6362L13.5195 18.4295L15.9773 16.5946C16.1245 16.4847 16.2971 16.4314 16.4681 16.4314C16.7043 16.4314 16.9384 16.5331 17.1004 16.7279C17.4018 17.0907 17.3558 17.6283 16.9967 17.9346L16.2545 18.5673" stroke="#FF4B03" stroke-width="0.6" stroke-miterlimit="10" stroke-linecap="round" stroke-linejoin="round"/>
<path d="M0.307617 19.9961L4.18741 18.8832C4.75613 18.72 5.36791 18.8106 5.86488 19.1317L8.492 20.828C8.91967 21.104 9.43755 21.204 9.93698 21.1068L13.8795 20.3401C14.1292 20.2917 14.3621 20.1793 14.5561 20.0141L15.1617 19.4983" stroke="#FF4B03" stroke-width="0.6" stroke-miterlimit="10" stroke-linecap="round" stroke-linejoin="round"/>
<path d="M3.47517 15.408L0.307617 16.0087" stroke="#FF4B03" stroke-width="0.6" stroke-miterlimit="10" stroke-linecap="round" stroke-linejoin="round"/>
<path d="M4.88623 15.1407L6.91182 14.7565C7.70648 14.6019 8.52492 14.8717 9.07232 15.4683L9.30973 15.7274C9.63941 16.0866 10.0199 16.3954 10.4394 16.6435C10.9085 16.9211 11.5498 17.3003 12.0476 17.5939C12.4691 17.8428 12.6093 18.3865 12.3584 18.8126L12.3469 18.8314C12.1095 19.2345 11.5945 19.3743 11.1861 19.1468L9.10389 17.9876C8.78324 17.8088 8.41503 17.7338 8.04968 17.7719" stroke="#FF4B03" stroke-width="0.6" stroke-miterlimit="10" stroke-linecap="round" stroke-linejoin="round"/>
<path d="M11.7216 15.0942C13.7588 15.0942 15.4103 13.4421 15.4103 11.4041C15.4103 9.36602 13.7588 7.71387 11.7216 7.71387C9.68443 7.71387 8.03296 9.36602 8.03296 11.4041C8.03296 13.4421 9.68443 15.0942 11.7216 15.0942Z" stroke="#FF4B03" stroke-width="0.6" stroke-miterlimit="10" stroke-linecap="round" stroke-linejoin="round"/>
<path d="M11.7215 13.9256C13.1136 13.9256 14.2421 12.7967 14.2421 11.404C14.2421 10.0113 13.1136 8.88232 11.7215 8.88232C10.3294 8.88232 9.20093 10.0113 9.20093 11.404C9.20093 12.7967 10.3294 13.9256 11.7215 13.9256Z" stroke="#FF4B03" stroke-width="0.6" stroke-miterlimit="10" stroke-linecap="round" stroke-linejoin="round"/>
<path d="M12.1403 10.4627C12.1403 10.4627 11.8491 10.2713 11.5437 10.3797C11.2509 10.4836 11.1247 10.852 11.3556 11.1085C11.4889 11.2566 11.6702 11.2692 11.9406 11.3855C12.5017 11.627 12.3098 12.4191 11.7139 12.4231C11.4814 12.4246 11.3372 12.3732 11.1685 12.2762" stroke="#FF4B03" stroke-width="0.6" stroke-miterlimit="10" stroke-linecap="round" stroke-linejoin="round"/>
<path d="M11.7139 12.4404V12.8197" stroke="#FF4B03" stroke-width="0.6" stroke-miterlimit="10" stroke-linecap="round" stroke-linejoin="round"/>
<path d="M11.7139 9.95654V10.3357" stroke="#FF4B03" stroke-width="0.6" stroke-miterlimit="10" stroke-linecap="round" stroke-linejoin="round"/>
<path d="M10.7352 3.49676L10.1771 3.11759C9.60484 2.72875 9.26221 2.08159 9.26221 1.38952V1.30981C9.26221 1.03189 9.53599 0.836831 9.79854 0.927737C10.2332 1.07822 10.7054 1.08093 11.1418 0.935446L11.5939 0.784674C11.6768 0.756997 11.7665 0.756997 11.8495 0.784674L12.3016 0.935446C12.738 1.08097 13.2102 1.07826 13.6449 0.927737C13.9074 0.836831 14.1812 1.03189 14.1812 1.30981V1.38952C14.1812 2.08159 13.8386 2.72875 13.2663 3.11759L12.7038 3.49979" stroke="#FF4B03" stroke-width="0.6" stroke-miterlimit="10" stroke-linecap="round" stroke-linejoin="round"/>
<path d="M12.7462 4.74033H10.6971C10.4707 4.74033 10.2871 4.5568 10.2871 4.33037V3.92021C10.2871 3.69383 10.4706 3.51025 10.6971 3.51025H12.7462C12.9725 3.51025 13.1561 3.69379 13.1561 3.92021V4.33041C13.1561 4.5568 12.9726 4.74033 12.7462 4.74033Z" stroke="#FF4B03" stroke-width="0.6" stroke-miterlimit="10" stroke-linecap="round" stroke-linejoin="round"/>
<path d="M11.7217 3.46739V2.28931" stroke="#FF4B03" stroke-width="0.6" stroke-miterlimit="10" stroke-linecap="round" stroke-linejoin="round"/>
<path d="M4.38366 9.7229H2.53931V10.953H4.38366V9.7229Z" stroke="#FF4B03" stroke-width="0.6" stroke-miterlimit="10" stroke-linecap="round" stroke-linejoin="round"/>
<path d="M4.38366 12.1831H2.53931V13.4132H4.38366V12.1831Z" stroke="#FF4B03" stroke-width="0.6" stroke-miterlimit="10" stroke-linecap="round" stroke-linejoin="round"/>
<path d="M3.25906 3.76065L1.47912 6.0775C1.35008 6.24545 1.46981 6.4884 1.6816 6.4884H2.54227V8.48713H4.38076V6.4884H5.24143C5.45322 6.4884 5.57295 6.24545 5.44391 6.0775L3.66405 3.76065C3.56183 3.62763 3.36128 3.62763 3.25906 3.76065Z" stroke="#FF4B03" stroke-width="0.6" stroke-miterlimit="10" stroke-linecap="round" stroke-linejoin="round"/>
<path d="M19.579 6.82617H17.7346V8.05625H19.579V6.82617Z" stroke="#FF4B03" stroke-width="0.6" stroke-miterlimit="10" stroke-linecap="round" stroke-linejoin="round"/>
<path d="M18.0134 1.4372L18.4542 0.863556C18.5563 0.730703 18.7573 0.730703 18.8594 0.863556L20.6393 3.18069C20.7681 3.34839 20.6484 3.59155 20.4368 3.59155H19.5761V5.59008H17.7375V3.59155H16.8768C16.6652 3.59155 16.5455 3.34839 16.6743 3.18069L17.138 2.57711" stroke="#FF4B03" stroke-width="0.6" stroke-miterlimit="10" stroke-linecap="round" stroke-linejoin="round"/>
</svg>
